<svg xmlns="http://www.w3.org/2000/svg" xmlns:xlink="http://www.w3.org/1999/xlink" width="500" zoomAndPan="magnify" viewBox="0 0 375 374.999991" height="500" preserveAspectRatio="xMidYMid meet" version="1.0"><defs><g/><clipPath id="663c912104"><path d="M 181 99 L 240.46875 99 L 240.46875 200.0625 L 181 200.0625 Z M 181 99 " clip-rule="nonzero"/></clipPath><clipPath id="51ebb8dc65"><path d="M 166 85.3125 L 182 85.3125 L 182 104 L 166 104 Z M 166 85.3125 " clip-rule="nonzero"/></clipPath><clipPath id="6e82bb792e"><path d="M 134.71875 85.3125 L 218 85.3125 L 218 170 L 134.71875 170 Z M 134.71875 85.3125 " clip-rule="nonzero"/></clipPath></defs><g clip-path="url(#663c912104)"><path fill="#e275bd" d="M 219.023438 99.929688 C 223.105469 106.460938 224.824219 115.128906 224.167969 125.929688 C 222.777344 137.890625 228.175781 146.511719 240.34375 151.796875 C 235.542969 153.40625 230.253906 152.410156 226.371094 149.152344 C 226.640625 151.589844 227.824219 154.121094 229.914062 156.722656 C 236.980469 165.230469 237.300781 174.195312 230.859375 183.617188 C 234.363281 174.046875 231.3125 165.195312 221.6875 157.066406 C 223.859375 163.199219 224.25 169.835938 222.820312 176.183594 C 221.96875 182.5625 224.570312 188.921875 229.648438 192.878906 C 224.273438 192.199219 219.4375 189.289062 216.332031 184.863281 C 213.222656 180.4375 212.117188 174.898438 213.304688 169.613281 C 206.832031 178.488281 205.867188 190.246094 210.792969 200.0625 C 202.609375 192.0625 200.515625 179.691406 205.605469 169.441406 C 200.433594 172.09375 197.914062 178.082031 199.632812 183.628906 C 202.363281 191.667969 202.945312 196.742188 201.367188 198.851562 C 201.136719 195.75 195.484375 187.480469 184.414062 174.023438 C 180.582031 169.089844 179.976562 162.390625 182.859375 156.851562 C 183.347656 155.828125 184.234375 155.050781 185.3125 154.691406 C 186.394531 154.332031 187.5625 154.421875 188.570312 154.945312 C 191.808594 157.128906 194.722656 158.773438 197.308594 159.878906 C 200.464844 161.097656 202.035156 159.566406 202.019531 155.296875 C 201.988281 153.464844 202.519531 152.53125 203.625 152.484375 C 204.65625 152.902344 205.832031 152.550781 206.453125 151.632812 C 207.078125 150.714844 206.976562 149.488281 206.21875 148.679688 C 207.027344 148.875 207.878906 148.574219 208.378906 147.902344 C 208.875 147.230469 208.925781 146.332031 208.507812 145.613281 C 208.335938 145.03125 208.433594 144.402344 208.777344 143.894531 C 209.121094 143.394531 209.671875 143.066406 210.277344 143.019531 C 215.308594 143.140625 217.179688 141.691406 215.898438 138.691406 C 213.441406 134.085938 213.34375 128.585938 215.636719 123.898438 C 220.527344 116.914062 221.78125 108.003906 219.003906 99.9375 Z M 219.023438 99.929688 " fill-opacity="1" fill-rule="evenodd"/></g><path fill="#e275bd" d="M 188.308594 98.03125 C 186.058594 98.828125 184.152344 100.363281 182.898438 102.402344 C 183.765625 95.734375 189.796875 90.980469 196.480469 91.675781 C 194.910156 93.320312 193.4375 95.914062 192.070312 99.464844 C 190.015625 105.175781 187.398438 107.246094 184.199219 105.691406 C 184.289062 102.640625 185.8125 99.800781 188.308594 98.03125 Z M 188.308594 98.03125 " fill-opacity="1" fill-rule="evenodd"/><path fill="#e275bd" d="M 181.082031 105.992188 C 178.105469 106.269531 175.207031 107.136719 172.558594 108.546875 C 175.929688 107.308594 179.5625 106.933594 183.113281 107.464844 C 183.628906 111.253906 180.566406 113.003906 173.941406 112.699219 C 170.609375 112.464844 166.894531 113.144531 162.78125 114.730469 C 168.222656 105.527344 174.316406 102.613281 181.074219 105.992188 Z M 181.082031 105.992188 " fill-opacity="1" fill-rule="evenodd"/><g clip-path="url(#51ebb8dc65)"><path fill="#e275bd" d="M 172.605469 98.808594 C 170.175781 91.996094 168.195312 87.691406 166.683594 85.917969 C 177.792969 88.414062 182.621094 93.355469 181.171875 100.75 C 180.148438 97.753906 178.621094 95.734375 176.589844 94.695312 C 178.523438 97.085938 179.847656 99.898438 180.445312 102.910156 C 176.894531 103.847656 174.285156 102.484375 172.613281 98.800781 Z M 172.605469 98.808594 " fill-opacity="1" fill-rule="evenodd"/></g><g clip-path="url(#6e82bb792e)"><path fill="#373435" d="M 186.066406 135.394531 C 181.105469 137.355469 176.640625 139.378906 172.65625 141.449219 C 163.34375 147.527344 158.648438 158.652344 160.800781 169.554688 C 152.691406 158.195312 154.566406 142.527344 165.128906 133.398438 C 153.746094 131.664062 142.292969 135.949219 134.847656 144.726562 C 138.699219 134.617188 146.800781 128.792969 159.15625 127.253906 C 167.410156 127.304688 173.808594 126.066406 178.359375 123.53125 C 173.769531 124.152344 169.105469 124.152344 164.515625 123.53125 C 161.398438 122.648438 158.796875 120.496094 157.347656 117.601562 C 155.898438 114.707031 155.734375 111.328125 156.90625 108.308594 C 156.277344 111.742188 157.273438 115.269531 159.613281 117.863281 C 161.953125 120.457031 165.367188 121.8125 168.84375 121.542969 C 177.753906 121.527344 186.628906 118.328125 195.492188 111.941406 C 208.753906 102.738281 208.410156 93.851562 194.453125 85.296875 C 208.34375 88.855469 216.101562 94.277344 217.722656 101.558594 C 218.980469 110.28125 215.429688 118.289062 207.078125 125.601562 C 201.429688 129.160156 194.425781 132.417969 186.058594 135.378906 Z M 186.066406 135.394531 " fill-opacity="1" fill-rule="evenodd"/></g><g fill="#e275bd" fill-opacity="1"><g transform="translate(107.852678, 252.571952)"><g><path d="M 14.300781 9.535156 C 14.492188 9.535156 14.6875 9.46875 14.878906 9.277344 C 14.945312 9.148438 15.074219 9.019531 15.136719 8.824219 C 15.203125 8.632812 15.265625 8.503906 15.332031 8.308594 C 15.652344 7.34375 15.976562 6.3125 16.167969 5.28125 C 16.683594 2.898438 17.199219 0.578125 17.648438 -1.804688 C 18.101562 -4.1875 18.617188 -6.570312 19.132812 -8.953125 C 19.453125 -10.371094 19.839844 -11.789062 20.160156 -13.269531 C 20.484375 -14.6875 20.871094 -16.105469 21.191406 -17.519531 C 21.320312 -18.359375 21.773438 -18.746094 22.609375 -18.808594 C 23.125 -18.875 23.640625 -19.003906 24.15625 -19.066406 C 24.671875 -19.132812 25.1875 -19.195312 25.703125 -19.261719 C 26.152344 -19.324219 26.667969 -19.453125 27.117188 -19.644531 C 27.503906 -19.773438 27.632812 -20.03125 27.570312 -20.484375 C 27.503906 -20.933594 27.117188 -21.191406 26.667969 -21.128906 C 26.601562 -21.128906 26.539062 -21.128906 26.472656 -21.128906 C 26.410156 -21.0625 26.28125 -21.0625 26.214844 -21.0625 C 25.1875 -20.871094 24.15625 -20.742188 23.125 -20.546875 L 22.738281 -20.546875 C 22.222656 -20.546875 22.03125 -20.933594 22.222656 -21.644531 L 23.960938 -27.957031 C 25.1875 -32.015625 26.410156 -35.941406 28.148438 -39.871094 C 28.214844 -40.066406 28.34375 -40.324219 28.472656 -40.582031 C 28.535156 -40.773438 28.535156 -41.03125 28.472656 -41.289062 C 28.40625 -41.613281 28.214844 -41.804688 27.957031 -41.871094 C 27.699219 -41.871094 27.503906 -41.804688 27.375 -41.675781 C 26.859375 -41.355469 26.667969 -40.773438 26.472656 -40.257812 C 23.960938 -34.074219 22.222656 -27.890625 20.417969 -21.449219 C 20.097656 -20.226562 20.03125 -20.226562 18.746094 -20.03125 C 16.941406 -19.839844 15.203125 -19.710938 13.460938 -19.582031 C 11.722656 -19.453125 9.984375 -19.324219 8.246094 -19.132812 C 8.117188 -19.132812 7.988281 -19.132812 7.921875 -19.132812 C 7.792969 -19.066406 7.664062 -19.066406 7.601562 -19.066406 C 7.085938 -19.066406 6.828125 -19.324219 6.890625 -19.839844 L 7.085938 -20.675781 C 8.050781 -24.542969 9.082031 -28.214844 10.433594 -32.015625 C 10.5 -32.207031 10.628906 -32.464844 10.691406 -32.722656 C 10.757812 -32.914062 10.820312 -33.171875 10.886719 -33.367188 C 11.015625 -33.753906 10.886719 -34.074219 10.5 -34.269531 C 10.433594 -34.332031 10.304688 -34.332031 10.113281 -34.332031 C 9.855469 -34.332031 9.597656 -34.203125 9.40625 -33.945312 C 9.277344 -33.625 9.148438 -33.367188 9.082031 -33.109375 C 8.953125 -32.785156 8.824219 -32.527344 8.695312 -32.207031 C 7.40625 -28.601562 6.503906 -24.929688 5.539062 -21.257812 C 5.347656 -20.484375 5.21875 -19.582031 4.765625 -18.875 C 4.507812 -18.421875 4.121094 -18.230469 3.671875 -18.292969 C 3.15625 -18.292969 2.707031 -18.164062 2.253906 -17.972656 C 1.933594 -17.84375 1.609375 -17.714844 1.289062 -17.648438 C 0.964844 -17.519531 0.644531 -17.390625 0.320312 -17.261719 C 0 -17.132812 -0.0625 -16.875 0 -16.554688 C 0.0625 -16.105469 0.320312 -15.910156 0.707031 -15.910156 C 1.03125 -15.910156 1.222656 -15.910156 1.351562 -15.976562 C 1.675781 -16.039062 2.0625 -16.167969 2.382812 -16.234375 C 2.707031 -16.296875 3.027344 -16.425781 3.347656 -16.488281 C 3.476562 -16.554688 3.605469 -16.554688 3.800781 -16.554688 C 4.1875 -16.554688 4.316406 -16.296875 4.1875 -15.78125 L 2.578125 -8.179688 C 1.609375 -4.25 0.707031 -0.257812 0.707031 3.863281 C 0.707031 4.1875 0.902344 4.445312 1.351562 4.636719 C 1.417969 4.636719 1.417969 4.636719 1.480469 4.703125 C 1.546875 4.703125 1.546875 4.703125 1.609375 4.703125 C 1.933594 4.703125 2.191406 4.507812 2.382812 4.121094 C 2.835938 3.15625 3.285156 2.125 2.835938 1.09375 C 2.578125 0.386719 2.640625 -0.257812 2.835938 -0.964844 C 3.15625 -2.835938 3.476562 -4.703125 3.929688 -6.570312 C 4.25 -8.179688 4.636719 -9.726562 4.960938 -11.335938 C 5.28125 -12.882812 5.667969 -14.429688 5.992188 -16.039062 C 6.121094 -16.8125 6.503906 -17.199219 7.214844 -17.261719 C 7.40625 -17.328125 7.664062 -17.328125 7.859375 -17.390625 C 8.050781 -17.457031 8.246094 -17.457031 8.4375 -17.457031 C 11.789062 -17.777344 15.136719 -18.035156 18.488281 -18.292969 L 18.679688 -18.292969 C 19.132812 -18.292969 19.453125 -18.292969 19.453125 -17.777344 L 19.195312 -16.554688 C 18.488281 -13.847656 17.90625 -11.144531 17.328125 -8.4375 C 16.746094 -5.734375 16.234375 -3.027344 15.652344 -0.320312 C 15.332031 1.160156 15.074219 2.578125 14.816406 4.058594 C 14.492188 5.476562 14.042969 6.890625 13.460938 8.246094 C 13.398438 8.308594 13.398438 8.4375 13.398438 8.632812 C 13.398438 9.082031 13.589844 9.339844 13.914062 9.46875 C 13.976562 9.535156 14.105469 9.535156 14.300781 9.535156 Z M 14.300781 9.535156 "/></g></g></g><g fill="#e275bd" fill-opacity="1"><g transform="translate(133.166962, 252.571952)"><g><path d="M 3.027344 -2.707031 C 7.472656 -2.707031 14.234375 -9.277344 17.328125 -12.5625 C 17.585938 -12.820312 17.777344 -13.011719 17.84375 -13.203125 C 18.035156 -13.527344 17.972656 -13.847656 17.648438 -14.171875 C 17.519531 -14.300781 17.390625 -14.363281 17.199219 -14.363281 C 17.070312 -14.363281 16.875 -14.300781 16.683594 -14.171875 C 16.488281 -13.976562 16.296875 -13.785156 16.105469 -13.589844 C 15.910156 -13.398438 15.652344 -13.203125 15.460938 -13.011719 C 14.6875 -12.304688 13.914062 -11.59375 13.203125 -10.886719 C 12.433594 -10.175781 11.660156 -9.40625 10.886719 -8.695312 C 9.019531 -6.957031 6.054688 -4.894531 3.476562 -4.378906 C 2.253906 -4.378906 1.546875 -4.378906 1.289062 -5.863281 C 0.964844 -6.699219 0.902344 -7.40625 1.09375 -8.117188 C 1.160156 -8.4375 1.351562 -8.632812 1.609375 -8.695312 C 4.703125 -9.019531 8.761719 -12.820312 9.277344 -15.976562 C 9.46875 -17.457031 8.632812 -18.359375 7.34375 -18.359375 C 7.277344 -18.359375 7.148438 -18.359375 7.085938 -18.359375 C 7.019531 -18.292969 6.890625 -18.292969 6.828125 -18.292969 C 3.414062 -17.777344 0.902344 -13.269531 -0.191406 -10.242188 C -0.449219 -9.277344 -0.707031 -8.375 -0.644531 -7.277344 C -0.707031 -6.570312 -0.515625 -5.796875 -0.257812 -5.089844 C 0.191406 -3.476562 1.289062 -2.707031 3.027344 -2.707031 Z M 2.449219 -10.628906 C 2.382812 -10.5625 2.253906 -10.628906 2.0625 -10.691406 C 1.996094 -10.691406 1.933594 -10.820312 1.933594 -11.015625 C 2.640625 -13.011719 4.832031 -16.234375 6.957031 -16.554688 C 7.277344 -16.617188 7.472656 -16.488281 7.535156 -16.039062 C 7.535156 -13.976562 4.121094 -11.53125 2.449219 -10.628906 Z M 2.449219 -10.628906 "/></g></g></g><g fill="#e275bd" fill-opacity="1"><g transform="translate(147.853111, 252.571952)"><g><path d="M -0.191406 1.09375 C 0.191406 1.09375 0.515625 0.902344 0.707031 0.578125 C 1.160156 -0.128906 1.546875 -0.707031 1.867188 -1.417969 C 2.449219 -2.511719 2.964844 -3.542969 3.476562 -4.574219 C 3.929688 -5.605469 4.445312 -6.632812 4.960938 -7.664062 C 5.734375 -9.148438 6.632812 -10.5625 7.859375 -11.789062 C 8.117188 -12.109375 8.375 -12.433594 8.953125 -12.433594 C 9.148438 -12.175781 9.277344 -11.917969 9.40625 -11.660156 C 9.535156 -11.402344 9.726562 -11.144531 9.917969 -10.886719 C 10.628906 -9.917969 11.464844 -9.46875 12.5625 -9.46875 C 14.363281 -9.46875 17.070312 -11.59375 18.292969 -12.820312 C 18.488281 -13.011719 18.679688 -13.269531 18.875 -13.65625 C 19.003906 -13.914062 18.9375 -14.171875 18.679688 -14.429688 C 18.488281 -14.558594 18.359375 -14.621094 18.164062 -14.621094 C 18.035156 -14.621094 17.972656 -14.621094 17.90625 -14.558594 C 17.585938 -14.363281 17.328125 -14.171875 17.070312 -13.914062 C 15.976562 -13.011719 13.71875 -11.144531 12.5625 -11.144531 C 11.980469 -11.144531 11.464844 -11.53125 11.015625 -12.304688 C 10.886719 -12.496094 10.757812 -12.753906 10.691406 -13.074219 C 10.5625 -13.332031 10.433594 -13.589844 10.304688 -13.785156 C 9.984375 -14.300781 9.597656 -14.558594 9.082031 -14.558594 C 8.824219 -14.558594 8.566406 -14.492188 8.308594 -14.363281 C 6.3125 -13.140625 4.765625 -10.949219 3.734375 -8.953125 L 1.222656 -3.863281 L 1.160156 -3.929688 L 1.222656 -3.929688 C 0.902344 -4.636719 1.09375 -5.28125 1.289062 -5.992188 C 1.804688 -7.921875 2.511719 -9.917969 3.347656 -11.917969 C 3.929688 -13.203125 4.507812 -14.492188 5.023438 -15.78125 C 5.21875 -16.296875 5.347656 -16.746094 5.347656 -17.199219 C 5.410156 -17.519531 5.28125 -17.714844 4.894531 -17.84375 L 4.703125 -17.84375 C 4.445312 -17.84375 4.25 -17.777344 4.121094 -17.648438 C 3.929688 -17.390625 3.800781 -17.070312 3.605469 -16.746094 C 1.351562 -11.59375 -0.449219 -7.34375 -1.289062 -1.609375 C -1.351562 -1.289062 -1.351562 -1.03125 -1.351562 -0.773438 C -1.289062 -0.449219 -1.289062 -0.191406 -1.289062 0.0625 C -1.222656 0.578125 -0.964844 0.902344 -0.515625 1.03125 C -0.449219 1.03125 -0.386719 1.03125 -0.386719 1.09375 C -0.320312 1.09375 -0.257812 1.09375 -0.191406 1.09375 Z M -0.191406 1.09375 "/></g></g></g><g fill="#e275bd" fill-opacity="1"><g transform="translate(163.569873, 252.571952)"><g><path d="M 14.300781 9.535156 C 14.492188 9.535156 14.6875 9.46875 14.878906 9.277344 C 14.945312 9.148438 15.074219 9.019531 15.136719 8.824219 C 15.203125 8.632812 15.265625 8.503906 15.332031 8.308594 C 15.652344 7.34375 15.976562 6.3125 16.167969 5.28125 C 16.683594 2.898438 17.199219 0.578125 17.648438 -1.804688 C 18.101562 -4.1875 18.617188 -6.570312 19.132812 -8.953125 C 19.453125 -10.371094 19.839844 -11.789062 20.160156 -13.269531 C 20.484375 -14.6875 20.871094 -16.105469 21.191406 -17.519531 C 21.320312 -18.359375 21.773438 -18.746094 22.609375 -18.808594 C 23.125 -18.875 23.640625 -19.003906 24.15625 -19.066406 C 24.671875 -19.132812 25.1875 -19.195312 25.703125 -19.261719 C 26.152344 -19.324219 26.667969 -19.453125 27.117188 -19.644531 C 27.503906 -19.773438 27.632812 -20.03125 27.570312 -20.484375 C 27.503906 -20.933594 27.117188 -21.191406 26.667969 -21.128906 C 26.601562 -21.128906 26.539062 -21.128906 26.472656 -21.128906 C 26.410156 -21.0625 26.28125 -21.0625 26.214844 -21.0625 C 25.1875 -20.871094 24.15625 -20.742188 23.125 -20.546875 L 22.738281 -20.546875 C 22.222656 -20.546875 22.03125 -20.933594 22.222656 -21.644531 L 23.960938 -27.957031 C 25.1875 -32.015625 26.410156 -35.941406 28.148438 -39.871094 C 28.214844 -40.066406 28.34375 -40.324219 28.472656 -40.582031 C 28.535156 -40.773438 28.535156 -41.03125 28.472656 -41.289062 C 28.40625 -41.613281 28.214844 -41.804688 27.957031 -41.871094 C 27.699219 -41.871094 27.503906 -41.804688 27.375 -41.675781 C 26.859375 -41.355469 26.667969 -40.773438 26.472656 -40.257812 C 23.960938 -34.074219 22.222656 -27.890625 20.417969 -21.449219 C 20.097656 -20.226562 20.03125 -20.226562 18.746094 -20.03125 C 16.941406 -19.839844 15.203125 -19.710938 13.460938 -19.582031 C 11.722656 -19.453125 9.984375 -19.324219 8.246094 -19.132812 C 8.117188 -19.132812 7.988281 -19.132812 7.921875 -19.132812 C 7.792969 -19.066406 7.664062 -19.066406 7.601562 -19.066406 C 7.085938 -19.066406 6.828125 -19.324219 6.890625 -19.839844 L 7.085938 -20.675781 C 8.050781 -24.542969 9.082031 -28.214844 10.433594 -32.015625 C 10.5 -32.207031 10.628906 -32.464844 10.691406 -32.722656 C 10.757812 -32.914062 10.820312 -33.171875 10.886719 -33.367188 C 11.015625 -33.753906 10.886719 -34.074219 10.5 -34.269531 C 10.433594 -34.332031 10.304688 -34.332031 10.113281 -34.332031 C 9.855469 -34.332031 9.597656 -34.203125 9.40625 -33.945312 C 9.277344 -33.625 9.148438 -33.367188 9.082031 -33.109375 C 8.953125 -32.785156 8.824219 -32.527344 8.695312 -32.207031 C 7.40625 -28.601562 6.503906 -24.929688 5.539062 -21.257812 C 5.347656 -20.484375 5.21875 -19.582031 4.765625 -18.875 C 4.507812 -18.421875 4.121094 -18.230469 3.671875 -18.292969 C 3.15625 -18.292969 2.707031 -18.164062 2.253906 -17.972656 C 1.933594 -17.84375 1.609375 -17.714844 1.289062 -17.648438 C 0.964844 -17.519531 0.644531 -17.390625 0.320312 -17.261719 C 0 -17.132812 -0.0625 -16.875 0 -16.554688 C 0.0625 -16.105469 0.320312 -15.910156 0.707031 -15.910156 C 1.03125 -15.910156 1.222656 -15.910156 1.351562 -15.976562 C 1.675781 -16.039062 2.0625 -16.167969 2.382812 -16.234375 C 2.707031 -16.296875 3.027344 -16.425781 3.347656 -16.488281 C 3.476562 -16.554688 3.605469 -16.554688 3.800781 -16.554688 C 4.1875 -16.554688 4.316406 -16.296875 4.1875 -15.78125 L 2.578125 -8.179688 C 1.609375 -4.25 0.707031 -0.257812 0.707031 3.863281 C 0.707031 4.1875 0.902344 4.445312 1.351562 4.636719 C 1.417969 4.636719 1.417969 4.636719 1.480469 4.703125 C 1.546875 4.703125 1.546875 4.703125 1.609375 4.703125 C 1.933594 4.703125 2.191406 4.507812 2.382812 4.121094 C 2.835938 3.15625 3.285156 2.125 2.835938 1.09375 C 2.578125 0.386719 2.640625 -0.257812 2.835938 -0.964844 C 3.15625 -2.835938 3.476562 -4.703125 3.929688 -6.570312 C 4.25 -8.179688 4.636719 -9.726562 4.960938 -11.335938 C 5.28125 -12.882812 5.667969 -14.429688 5.992188 -16.039062 C 6.121094 -16.8125 6.503906 -17.199219 7.214844 -17.261719 C 7.40625 -17.328125 7.664062 -17.328125 7.859375 -17.390625 C 8.050781 -17.457031 8.246094 -17.457031 8.4375 -17.457031 C 11.789062 -17.777344 15.136719 -18.035156 18.488281 -18.292969 L 18.679688 -18.292969 C 19.132812 -18.292969 19.453125 -18.292969 19.453125 -17.777344 L 19.195312 -16.554688 C 18.488281 -13.847656 17.90625 -11.144531 17.328125 -8.4375 C 16.746094 -5.734375 16.234375 -3.027344 15.652344 -0.320312 C 15.332031 1.160156 15.074219 2.578125 14.816406 4.058594 C 14.492188 5.476562 14.042969 6.890625 13.460938 8.246094 C 13.398438 8.308594 13.398438 8.4375 13.398438 8.632812 C 13.398438 9.082031 13.589844 9.339844 13.914062 9.46875 C 13.976562 9.535156 14.105469 9.535156 14.300781 9.535156 Z M 14.300781 9.535156 "/></g></g></g><g fill="#e275bd" fill-opacity="1"><g transform="translate(188.884157, 252.571952)"><g><path d="M 3.027344 -2.707031 C 7.472656 -2.707031 14.234375 -9.277344 17.328125 -12.5625 C 17.585938 -12.820312 17.777344 -13.011719 17.84375 -13.203125 C 18.035156 -13.527344 17.972656 -13.847656 17.648438 -14.171875 C 17.519531 -14.300781 17.390625 -14.363281 17.199219 -14.363281 C 17.070312 -14.363281 16.875 -14.300781 16.683594 -14.171875 C 16.488281 -13.976562 16.296875 -13.785156 16.105469 -13.589844 C 15.910156 -13.398438 15.652344 -13.203125 15.460938 -13.011719 C 14.6875 -12.304688 13.914062 -11.59375 13.203125 -10.886719 C 12.433594 -10.175781 11.660156 -9.40625 10.886719 -8.695312 C 9.019531 -6.957031 6.054688 -4.894531 3.476562 -4.378906 C 2.253906 -4.378906 1.546875 -4.378906 1.289062 -5.863281 C 0.964844 -6.699219 0.902344 -7.40625 1.09375 -8.117188 C 1.160156 -8.4375 1.351562 -8.632812 1.609375 -8.695312 C 4.703125 -9.019531 8.761719 -12.820312 9.277344 -15.976562 C 9.46875 -17.457031 8.632812 -18.359375 7.34375 -18.359375 C 7.277344 -18.359375 7.148438 -18.359375 7.085938 -18.359375 C 7.019531 -18.292969 6.890625 -18.292969 6.828125 -18.292969 C 3.414062 -17.777344 0.902344 -13.269531 -0.191406 -10.242188 C -0.449219 -9.277344 -0.707031 -8.375 -0.644531 -7.277344 C -0.707031 -6.570312 -0.515625 -5.796875 -0.257812 -5.089844 C 0.191406 -3.476562 1.289062 -2.707031 3.027344 -2.707031 Z M 2.449219 -10.628906 C 2.382812 -10.5625 2.253906 -10.628906 2.0625 -10.691406 C 1.996094 -10.691406 1.933594 -10.820312 1.933594 -11.015625 C 2.640625 -13.011719 4.832031 -16.234375 6.957031 -16.554688 C 7.277344 -16.617188 7.472656 -16.488281 7.535156 -16.039062 C 7.535156 -13.976562 4.121094 -11.53125 2.449219 -10.628906 Z M 2.449219 -10.628906 "/></g></g></g><g fill="#e275bd" fill-opacity="1"><g transform="translate(203.570306, 252.571952)"><g><path d="M 0.320312 -5.539062 C 1.160156 -5.539062 2.253906 -6.441406 2.835938 -6.957031 C 4.445312 -8.4375 5.863281 -9.984375 7.34375 -11.722656 C 7.535156 -11.917969 7.792969 -12.175781 7.988281 -12.433594 C 8.179688 -12.691406 8.503906 -12.882812 8.953125 -13.074219 C 8.503906 -11.335938 8.117188 -9.664062 8.117188 -7.921875 C 8.117188 -6.699219 8.632812 -6.054688 9.726562 -6.054688 C 9.984375 -6.054688 10.175781 -6.054688 10.304688 -6.121094 C 13.011719 -6.570312 17.585938 -10.886719 19.453125 -12.753906 C 19.515625 -12.820312 19.644531 -12.949219 19.710938 -13.011719 C 19.773438 -13.074219 19.773438 -13.140625 19.839844 -13.203125 C 19.96875 -13.65625 19.902344 -13.976562 19.582031 -14.171875 C 19.453125 -14.300781 19.324219 -14.363281 19.132812 -14.363281 C 19.066406 -14.363281 19.003906 -14.300781 18.808594 -14.234375 C 18.617188 -14.105469 18.421875 -13.976562 18.292969 -13.847656 C 18.101562 -13.65625 17.90625 -13.527344 17.714844 -13.332031 C 17.132812 -12.882812 16.617188 -12.433594 16.167969 -11.980469 C 15.652344 -11.53125 15.136719 -11.015625 14.558594 -10.5625 C 13.785156 -9.855469 12.949219 -9.339844 12.175781 -8.824219 C 11.59375 -8.503906 11.015625 -8.246094 10.433594 -7.988281 C 10.371094 -7.921875 10.304688 -7.921875 10.175781 -7.921875 C 9.917969 -7.921875 9.789062 -8.117188 9.789062 -8.503906 C 9.789062 -11.273438 11.789062 -15.976562 13.011719 -18.421875 C 13.140625 -18.746094 13.269531 -19.003906 13.460938 -19.324219 C 13.589844 -19.582031 13.71875 -19.839844 13.847656 -20.160156 C 14.042969 -20.742188 13.976562 -21.191406 13.527344 -21.449219 C 13.332031 -21.515625 13.203125 -21.578125 13.140625 -21.578125 C 12.949219 -21.578125 12.691406 -21.449219 12.367188 -21.128906 C 12.175781 -20.933594 12.046875 -20.675781 11.917969 -20.484375 C 11.722656 -20.226562 11.59375 -19.96875 11.402344 -19.773438 C 11.015625 -19.261719 10.628906 -18.746094 10.304688 -18.230469 C 9.917969 -17.714844 9.535156 -17.199219 9.148438 -16.746094 C 8.890625 -16.425781 8.695312 -16.234375 8.566406 -16.234375 C 8.503906 -16.234375 8.308594 -16.359375 7.988281 -16.554688 C 7.34375 -17.070312 6.699219 -17.328125 6.054688 -17.328125 C 5.347656 -17.328125 4.636719 -17.070312 3.929688 -16.488281 C 3.476562 -16.167969 3.15625 -15.910156 2.964844 -15.652344 C 1.03125 -13.71875 -1.09375 -9.917969 -1.09375 -7.085938 C -1.03125 -6.054688 -0.515625 -5.539062 0.320312 -5.539062 Z M 0.902344 -7.859375 C 0.902344 -7.921875 0.902344 -7.921875 0.835938 -7.921875 L 0.773438 -7.988281 C 1.289062 -10.757812 2.578125 -13.074219 4.574219 -14.816406 C 4.894531 -15.136719 5.667969 -15.589844 6.121094 -15.589844 C 6.441406 -15.589844 6.699219 -15.460938 7.019531 -15.265625 C 7.34375 -15.074219 7.40625 -14.75 7.277344 -14.363281 C 7.214844 -14.171875 7.085938 -14.105469 7.019531 -14.042969 C 5.28125 -11.917969 3.542969 -9.789062 1.480469 -8.050781 C 1.351562 -7.921875 1.160156 -7.859375 0.902344 -7.859375 Z M 0.902344 -7.859375 "/></g></g></g><g fill="#e275bd" fill-opacity="1"><g transform="translate(220.253253, 252.571952)"><g><path d="M 2.125 3.414062 C 3.414062 3.414062 5.476562 1.222656 6.183594 0.128906 C 7.535156 -1.675781 8.953125 -3.542969 10.371094 -5.539062 C 11.722656 -7.472656 13.140625 -9.339844 14.492188 -11.078125 C 14.816406 -11.59375 15.203125 -12.175781 15.460938 -12.691406 C 15.652344 -12.882812 15.71875 -13.140625 15.71875 -13.460938 C 15.78125 -13.785156 15.71875 -14.042969 15.394531 -14.171875 C 15.203125 -14.234375 15.074219 -14.300781 14.945312 -14.300781 C 14.492188 -14.300781 13.914062 -13.269531 13.71875 -12.949219 C 10.886719 -9.019531 7.601562 -4.445312 4.574219 -0.578125 C 4.25 -0.128906 3.027344 1.417969 2.449219 1.417969 C 2.125 1.417969 1.933594 1.222656 1.867188 0.902344 C 1.417969 -0.386719 1.546875 -1.738281 1.738281 -3.027344 C 2.0625 -7.019531 2.964844 -14.042969 5.21875 -17.457031 C 8.179688 -21.902344 13.71875 -31.175781 14.878906 -36.328125 C 14.945312 -36.84375 14.878906 -37.359375 14.300781 -37.617188 C 14.042969 -37.683594 13.914062 -37.746094 13.847656 -37.746094 C 13.589844 -37.746094 13.269531 -37.617188 12.949219 -37.359375 C 8.503906 -32.914062 4.894531 -23.1875 2.964844 -17.328125 C 2.511719 -15.847656 2.125 -14.558594 1.160156 -13.332031 C 0.902344 -13.074219 0.707031 -12.691406 0.964844 -12.367188 C 1.546875 -11.660156 1.289062 -10.886719 1.09375 -10.175781 C 0.515625 -7.40625 0.0625 -4.703125 0 -1.417969 C 0 -1.222656 0 -0.902344 0 -0.515625 C 0 -0.128906 0 0.257812 0.0625 0.707031 C 0.257812 1.738281 0.902344 3.414062 2.125 3.414062 Z M 7.34375 -23.125 C 7.148438 -23.511719 7.214844 -23.960938 7.40625 -24.476562 C 8.632812 -27.632812 10.113281 -30.597656 11.851562 -33.496094 C 12.109375 -33.816406 12.304688 -34.011719 12.496094 -34.011719 C 12.5625 -34.011719 12.691406 -33.945312 12.882812 -33.882812 C 12.820312 -33.945312 12.820312 -34.011719 12.820312 -34.074219 C 12.820312 -34.011719 12.820312 -34.011719 12.882812 -33.945312 L 12.882812 -33.882812 L 11.144531 -30.402344 C 9.855469 -27.957031 8.632812 -25.507812 7.40625 -23.125 C 7.40625 -23.1875 7.40625 -23.1875 7.40625 -23.1875 C 7.34375 -23.1875 7.34375 -23.1875 7.34375 -23.125 Z M 7.34375 -23.125 "/></g></g></g><g fill="#e275bd" fill-opacity="1"><g transform="translate(232.749368, 252.571952)"><g><path d="M 1.160156 4.574219 C 2.191406 4.574219 3.414062 3.671875 3.992188 2.898438 C 6.054688 0.515625 8.375 -2.640625 10.5 -5.539062 C 12.304688 -7.988281 14.6875 -11.273438 15.976562 -12.820312 C 16.105469 -12.949219 16.167969 -13.074219 16.167969 -13.203125 C 16.359375 -13.589844 16.296875 -13.914062 15.976562 -14.171875 C 15.78125 -14.234375 15.652344 -14.300781 15.523438 -14.300781 C 15.460938 -14.300781 15.460938 -14.300781 15.394531 -14.300781 C 15.332031 -14.234375 15.332031 -14.234375 15.265625 -14.234375 C 14.945312 -14.105469 14.6875 -13.914062 14.492188 -13.71875 C 14.300781 -13.460938 14.042969 -13.203125 13.847656 -12.949219 C 11.980469 -11.078125 6.3125 -2.578125 3.605469 0.835938 C 3.285156 1.222656 2.964844 1.609375 2.640625 1.996094 C 2.320312 2.320312 1.933594 2.578125 1.351562 2.640625 C 0.386719 1.867188 0.707031 0.707031 0.773438 -0.257812 C 0.964844 -2.511719 1.222656 -4.574219 1.738281 -6.699219 C 2.578125 -10.433594 5.925781 -20.675781 7.40625 -23.960938 C 7.730469 -24.800781 8.375 -25.1875 9.277344 -25.25 L 23.125 -26.472656 C 23.445312 -26.539062 23.703125 -26.539062 23.960938 -26.601562 C 24.21875 -26.601562 24.476562 -26.667969 24.800781 -26.730469 C 25.058594 -26.796875 25.1875 -27.054688 25.1875 -27.375 C 25.121094 -27.828125 24.929688 -28.019531 24.671875 -28.019531 L 22.351562 -28.019531 C 20.546875 -27.828125 18.617188 -27.632812 16.488281 -27.503906 C 14.363281 -27.3125 12.433594 -27.117188 10.628906 -26.925781 C 10.5625 -26.925781 10.433594 -26.925781 10.304688 -26.925781 C 10.175781 -26.859375 10.046875 -26.859375 9.917969 -26.859375 C 9.664062 -26.859375 9.40625 -26.925781 9.082031 -26.988281 C 9.082031 -27.3125 9.148438 -27.632812 9.277344 -27.890625 C 9.339844 -28.085938 9.46875 -28.34375 9.535156 -28.535156 C 10.371094 -30.273438 11.207031 -31.949219 11.917969 -33.6875 C 12.238281 -34.269531 12.304688 -34.785156 12.238281 -35.105469 C 12.109375 -35.429688 11.917969 -35.558594 11.660156 -35.558594 C 11.207031 -35.558594 10.757812 -35.171875 10.304688 -34.398438 C 9.984375 -33.882812 9.664062 -33.367188 9.40625 -32.851562 C 9.082031 -32.335938 8.824219 -31.820312 8.503906 -31.304688 L 6.761719 -27.441406 C 6.441406 -26.730469 5.925781 -26.410156 5.152344 -26.34375 C 4.058594 -26.214844 2.898438 -26.085938 1.738281 -25.960938 C 0.578125 -25.832031 -0.578125 -25.703125 -1.738281 -25.507812 C -2.0625 -25.445312 -2.382812 -25.378906 -2.707031 -25.316406 C -2.964844 -25.25 -3.222656 -25.121094 -3.542969 -25.058594 C -3.863281 -24.992188 -3.929688 -24.734375 -3.863281 -24.347656 C -3.800781 -24.15625 -3.671875 -24.027344 -3.414062 -23.960938 C -3.222656 -23.898438 -3.027344 -23.898438 -2.707031 -23.898438 C -2.191406 -23.898438 -1.609375 -24.027344 -1.09375 -24.089844 C -0.257812 -24.15625 0.644531 -24.285156 1.546875 -24.414062 C 2.382812 -24.542969 3.285156 -24.671875 4.121094 -24.734375 L 4.636719 -24.734375 C 5.410156 -24.734375 5.476562 -24.414062 5.152344 -23.445312 C 4.703125 -22.351562 4.378906 -21.320312 3.929688 -20.097656 C 1.804688 -14.300781 -0.902344 -5.476562 -0.902344 0.773438 C -0.902344 2.253906 -0.515625 4.574219 1.160156 4.574219 Z M 1.160156 4.574219 "/></g></g></g><g fill="#e275bd" fill-opacity="1"><g transform="translate(245.696369, 252.571952)"><g><path d="M 1.222656 2.0625 C 1.417969 2.0625 1.675781 1.933594 1.996094 1.738281 C 2.449219 1.417969 2.769531 0.964844 3.027344 0.386719 C 3.542969 -0.515625 4.058594 -1.417969 4.507812 -2.382812 C 6.3125 -6.121094 8.761719 -11.207031 11.59375 -14.363281 C 11.789062 -14.558594 12.046875 -14.816406 12.367188 -15.007812 C 12.433594 -15.074219 12.496094 -15.074219 12.5625 -15.074219 C 12.753906 -15.074219 12.820312 -15.007812 12.820312 -14.816406 C 12.882812 -14.492188 12.882812 -14.234375 12.882812 -13.976562 C 12.882812 -13.71875 12.882812 -13.460938 12.882812 -13.140625 C 12.820312 -11.789062 12.820312 -10.433594 13.074219 -9.148438 C 13.398438 -7.601562 14.234375 -6.828125 15.523438 -6.828125 C 17.199219 -6.828125 24.15625 -11.53125 24.671875 -13.398438 C 24.734375 -13.71875 24.605469 -13.976562 24.347656 -14.171875 C 24.285156 -14.234375 24.21875 -14.234375 24.15625 -14.300781 C 24.089844 -14.363281 23.960938 -14.363281 23.898438 -14.363281 C 23.769531 -14.363281 23.640625 -14.300781 23.574219 -14.234375 C 23.316406 -14.042969 23.058594 -13.785156 22.867188 -13.527344 C 21.644531 -12.304688 17.90625 -9.46875 16.359375 -8.761719 C 16.105469 -8.632812 15.847656 -8.566406 15.589844 -8.566406 C 15.136719 -8.566406 14.816406 -8.953125 14.6875 -9.664062 C 14.621094 -9.917969 14.558594 -10.175781 14.558594 -10.5 C 14.558594 -10.757812 14.558594 -11.015625 14.558594 -11.335938 C 14.492188 -11.851562 14.492188 -12.367188 14.558594 -12.882812 C 14.558594 -13.398438 14.558594 -13.914062 14.558594 -14.492188 C 14.558594 -14.75 14.558594 -15.007812 14.621094 -15.332031 C 14.621094 -15.589844 14.558594 -15.847656 14.492188 -16.167969 C 14.363281 -17.003906 13.914062 -17.457031 13.140625 -17.457031 C 12.753906 -17.457031 12.433594 -17.328125 12.175781 -17.132812 C 8.824219 -14.816406 4.832031 -7.019531 3.09375 -3.347656 C 2.898438 -3.027344 2.769531 -2.707031 2.640625 -2.382812 C 2.511719 -2.0625 2.253906 -1.738281 1.804688 -1.417969 C 1.738281 -1.867188 1.675781 -1.996094 1.675781 -2.253906 C 1.675781 -6.761719 3.671875 -17.132812 6.183594 -21.128906 C 9.535156 -26.28125 12.109375 -31.5625 14.621094 -37.167969 C 14.75 -37.488281 14.878906 -37.8125 15.007812 -38.132812 C 15.136719 -38.457031 15.265625 -38.777344 15.332031 -39.097656 C 15.394531 -39.292969 15.460938 -39.421875 15.460938 -39.613281 C 15.460938 -39.808594 15.460938 -39.9375 15.460938 -40.128906 C 15.460938 -40.453125 15.265625 -40.644531 14.816406 -40.644531 C 14.75 -40.644531 14.6875 -40.644531 14.621094 -40.582031 C 14.300781 -40.386719 13.976562 -40.195312 13.785156 -40 C 9.40625 -34.269531 5.992188 -26.988281 3.734375 -20.226562 C 3.476562 -19.515625 3.222656 -18.875 3.027344 -18.230469 C 2.769531 -17.585938 2.449219 -16.941406 1.996094 -16.359375 C 1.933594 -16.167969 1.804688 -16.039062 1.738281 -15.847656 C 1.609375 -15.652344 1.609375 -15.394531 1.675781 -15.203125 C 1.867188 -14.75 1.933594 -14.300781 1.867188 -13.914062 C 1.738281 -13.527344 1.609375 -13.140625 1.546875 -12.753906 C 1.417969 -11.917969 1.289062 -11.078125 1.09375 -10.304688 C 0.902344 -9.46875 0.707031 -8.632812 0.578125 -7.792969 C 0.128906 -5.28125 -0.191406 -2.964844 0 -0.449219 C 0 0.128906 0.0625 0.707031 0.191406 1.222656 C 0.386719 1.804688 0.773438 2.0625 1.222656 2.0625 Z M 9.019531 -28.859375 C 9.339844 -29.179688 9.40625 -29.5 9.46875 -29.953125 C 9.535156 -29.628906 9.40625 -29.308594 9.082031 -28.921875 L 9.082031 -28.859375 Z M 9.597656 -30.082031 C 9.789062 -30.273438 9.917969 -30.339844 9.984375 -30.402344 Z M 10.175781 -30.726562 L 10.371094 -31.242188 C 10.304688 -31.175781 10.304688 -31.046875 10.304688 -30.984375 C 10.304688 -30.917969 10.242188 -30.789062 10.175781 -30.726562 Z M 10.175781 -30.726562 "/></g></g></g><g fill="#373435" fill-opacity="1"><g transform="translate(153.928636, 286.651139)"><g><path d="M 7.917969 0 L 8.71875 0 L 6.9375 -8.175781 L 4.421875 -1.613281 L 1.90625 -8.175781 L 0.113281 0 L 0.925781 0 L 2.109375 -5.457031 L 4.421875 0.449219 L 6.722656 -5.457031 Z M 7.917969 0 "/></g></g></g><g fill="#373435" fill-opacity="1"><g transform="translate(166.522092, 286.651139)"><g><path d="M 2.085938 -2.820312 L 3.484375 -6.351562 L 4.871094 -2.820312 Z M 6.847656 0 L 3.484375 -8.199219 L 0.113281 0 L 0.96875 0 L 1.792969 -2.085938 L 5.164062 -2.085938 L 5.988281 0 Z M 6.847656 0 "/></g></g></g><g fill="#373435" fill-opacity="1"><g transform="translate(177.244517, 286.651139)"><g><path d="M 0.226562 -6.957031 L 2.085938 -6.957031 L 2.085938 -0.0234375 L 2.875 -0.0234375 L 2.875 -6.957031 L 4.738281 -6.957031 L 4.738281 -7.691406 L 0.226562 -7.691406 Z M 0.226562 -6.957031 "/></g></g></g><g fill="#373435" fill-opacity="1"><g transform="translate(185.971935, 286.651139)"><g><path d="M 0.226562 -6.957031 L 2.085938 -6.957031 L 2.085938 -0.0234375 L 2.875 -0.0234375 L 2.875 -6.957031 L 4.738281 -6.957031 L 4.738281 -7.691406 L 0.226562 -7.691406 Z M 0.226562 -6.957031 "/></g></g></g><g fill="#373435" fill-opacity="1"><g transform="translate(194.699356, 286.651139)"><g><path d="M 5.402344 0 L 5.402344 -0.734375 L 1.636719 -0.734375 L 1.636719 -3.460938 L 5.289062 -3.460938 L 5.289062 -4.207031 L 1.636719 -4.207031 L 1.636719 -6.9375 L 5.402344 -6.9375 L 5.402344 -7.667969 L 0.847656 -7.667969 L 0.847656 0 Z M 5.402344 0 "/></g></g></g><g fill="#373435" fill-opacity="1"><g transform="translate(204.711698, 286.651139)"><g><path d="M 1.636719 -3.789062 L 1.636719 -6.914062 L 3.417969 -6.914062 C 3.878906 -6.914062 4.253906 -6.765625 4.535156 -6.472656 C 4.804688 -6.179688 4.953125 -5.820312 4.953125 -5.367188 C 4.953125 -4.917969 4.804688 -4.546875 4.511719 -4.242188 C 4.21875 -3.9375 3.855469 -3.789062 3.417969 -3.789062 Z M 5.742188 -5.355469 C 5.742188 -6.011719 5.492188 -6.574219 5.019531 -7.015625 C 4.554688 -7.445312 3.980469 -7.667969 3.304688 -7.667969 L 0.847656 -7.667969 L 0.847656 0 L 1.636719 0 L 1.636719 -3.035156 L 2.550781 -3.035156 L 4.804688 0 L 5.863281 0 L 3.496094 -3.035156 C 4.09375 -3.066406 4.601562 -3.28125 5.019531 -3.675781 C 5.492188 -4.117188 5.742188 -4.679688 5.742188 -5.355469 Z M 5.742188 -5.355469 "/></g></g></g><g fill="#373435" fill-opacity="1"><g transform="translate(214.611325, 286.651139)"><g><path d="M 2.964844 -3.609375 C 3.957031 -3.371094 4.636719 -3.113281 4.996094 -2.820312 C 5.246094 -2.617188 5.367188 -2.355469 5.367188 -2.042969 C 5.367188 -1.726562 5.300781 -1.464844 5.164062 -1.285156 C 4.828125 -0.8125 4.21875 -0.574219 3.359375 -0.574219 C 2.164062 -0.574219 1.488281 -0.980469 1.34375 -1.792969 L 0.417969 -1.792969 C 0.6875 -0.496094 1.667969 0.148438 3.359375 0.148438 C 4.117188 0.148438 4.75 -0.0117188 5.253906 -0.351562 C 5.863281 -0.746094 6.179688 -1.332031 6.179688 -2.097656 C 6.179688 -2.730469 5.933594 -3.214844 5.4375 -3.554688 C 5.085938 -3.800781 4.523438 -4.027344 3.746094 -4.230469 C 2.953125 -4.433594 2.449219 -4.601562 2.210938 -4.726562 C 1.691406 -4.984375 1.433594 -5.347656 1.445312 -5.820312 C 1.445312 -6.066406 1.488281 -6.28125 1.601562 -6.441406 C 1.894531 -6.878906 2.414062 -7.105469 3.15625 -7.105469 C 4.207031 -7.105469 4.804688 -6.765625 4.960938 -6.113281 L 5.820312 -6.113281 C 5.539062 -7.21875 4.648438 -7.78125 3.15625 -7.78125 C 2.480469 -7.78125 1.882812 -7.601562 1.386719 -7.242188 C 0.878906 -6.878906 0.621094 -6.351562 0.621094 -5.628906 C 0.621094 -4.648438 1.410156 -3.96875 2.964844 -3.609375 Z M 2.964844 -3.609375 "/></g></g></g></svg>